<svg xmlns="http://www.w3.org/2000/svg" viewBox="0 0 800 500" role="img" aria-labelledby="title description">
  <title id="title">Winter campaign placeholder</title>
  <desc id="description">Abstract grayscale aerial landscape used until a real LTC winter sample is provided.</desc>
  <rect width="800" height="500" fill="#ececea"/>
  <path d="M0 0h270l52 190L0 246Z" fill="#d0d0cc"/>
  <path d="M270 0h284l-54 202-178-12Z" fill="#f8f8f5"/>
  <path d="M554 0h246v224l-300-22Z" fill="#dcdcd8"/>
  <path d="M0 246l322-56 58 310H0Z" fill="#f3f3f0"/>
  <path d="m322 190 178 12 102 298H380Z" fill="#bebebb"/>
  <path d="m500 202 300 22v276H602Z" fill="#e8e8e4"/>
  <path d="M-40 438C184 350 338 326 842 124" fill="none" stroke="#fff" stroke-width="30"/>
  <path d="M-40 438C184 350 338 326 842 124" fill="none" stroke="#8d8d88" stroke-width="3" stroke-dasharray="14 12"/>
  <rect x="248" y="206" width="304" height="88" rx="2" fill="#111" opacity=".84"/>
  <text x="400" y="247" fill="#fff" font-family="Arial, sans-serif" font-size="22" font-weight="700" text-anchor="middle">WINTER PREVIEW</text>
  <text x="400" y="273" fill="#d7d7d3" font-family="Arial, sans-serif" font-size="13" text-anchor="middle">Replace with the matching LTC sample</text>
</svg>
